<svg xmlns="http://www.w3.org/2000/svg" width="208" height="127" fill="none" class="styles_icon__pUY_O">
    <path fill="#F2A1B6"
          d="m42.215 2.194-7.767 7.767c-.7.7-1.093 1.65-1.093 2.64v111.422a2.49 2.49 0 0 0 2.488 2.488h120.629c.99 0 1.939-.393 2.639-1.093l7.767-7.766c.7-.7 1.093-1.65 1.093-2.64V3.59a2.49 2.49 0 0 0-2.489-2.489H44.854c-.99 0-1.94.394-2.64 1.093"></path>
    <path fill="#D66B8C"
          d="M158.017 125.143a.62.62 0 0 1-.621-.623V11.676H34.848a.621.621 0 1 1 0-1.243h123.169c.344 0 .623.278.623.622V124.52a.624.624 0 0 1-.623.623"></path>
    <path fill="#47535E"
          d="M83.09 83.593q-.055 0-.106-.004c-.637-.041-1.08-.412-1.216-1.016a.62.62 0 1 1 1.212-.275c1.04.592 7.803-4.347 11.205-9.684 1.207-1.896 2.319-4.4.755-5.574a.624.624 0 0 1-.125-.87c.21-.275.599-.33.87-.126.925.694 1.821 2.075.84 4.723-1.921 5.188-10.452 12.824-13.436 12.826"></path>
    <path fill="#CC3A3A"
          d="M94.952 127.908c-.509 0-1.003-.352-1.472-1.05a.623.623 0 0 1 1.033-.695c.302.448.466.502.467.502-.023-.018.03-.127.076-.238-.154-1.863-.412-4.335-.715-7.256-1.502-14.424-4.014-38.564-1.357-55.462 1.985-12.62 1.196-28.896.622-40.778-.355-7.321-.635-13.104-.149-15.586a53 53 0 0 0 .68-4.523c.172-1.512.25-2.2.838-2.536.517-.294 1.112-.073 1.836.248a.622.622 0 1 1-.506 1.136c-.532-.236-.702-.26-.788-.28.026.084-.061.84-.144 1.572a54 54 0 0 1-.696 4.621c-.457 2.333-.18 8.05.17 15.287.579 11.937 1.37 28.286-.633 41.034-2.633 16.736-.13 40.775 1.364 55.138.312 3.003.576 5.534.73 7.417a.6.6 0 0 1-.024.229c-.053.18-.36 1.084-1.161 1.206a1 1 0 0 1-.17.014"></path>
    <path fill="#CC3A3A"
          d="M99.792 128.177c-.431 0-.864-.147-1.192-.355-.536-.341-.824-.853-.772-1.374a.62.62 0 1 1 1.237.124c.022.116.422.396.792.357.103-.013.21-.026.184-.376-.222-3.111-.611-7.503-1.06-12.589-1.033-11.664-2.449-27.637-2.797-39.385-.261-8.8.476-19.522 1.126-28.982.604-8.778 1.127-16.358.803-20.974l-.227-3.13c-.85-11.485-1.293-19.724.726-21.122.417-.29.93-.318 1.44-.085a.621.621 0 1 1-.522 1.13c-.145-.067-.185-.043-.21-.022-1.591 1.102-.716 12.936-.194 20.007l.228 3.134c.328 4.704-.195 12.324-.803 21.147-.649 9.43-1.384 20.12-1.124 28.86.347 11.71 1.76 27.662 2.792 39.312.451 5.09.84 9.489 1.063 12.611.064.914-.398 1.332-.679 1.5a1.54 1.54 0 0 1-.811.212"></path>
    <path fill="#CC3A3A"
          d="M100.891 68.493c-4.539 0-8.413-.029-11.066-.084-3.71-.077-11.364-.596-20.225-1.199-12.644-.859-31.093-2.099-35.953-1.7a.622.622 0 0 1-.493 1.139c-.73-.249-1.831-.627-1.666-1.448.287-1.418 5.08-1.481 38.197.768 8.846.6 16.484 1.12 20.167 1.196 11.174.232 52.158-.046 60.138-1.267 2.385-.365 5.365-.665 8.249-.953 3.499-.353 8.131-.818 9.661-1.322l-.153-.062a.624.624 0 0 1-.358-.805.625.625 0 0 1 .805-.357c.423.164 1.419.546 1.31 1.358-.159 1.168-2.383 1.545-11.142 2.426-2.868.288-5.832.586-8.185.945-6.288.961-32.383 1.365-49.286 1.365"></path>
    <path fill="#CC3A3A"
          d="M120.622 74.063c-4.971 0-9.494-.125-12.923-.431-15.444-1.38-65.803-4.697-73.818-3.796a.622.622 0 0 1-.727.922c-.502-.171-1.437-.49-1.275-1.253.17-.829.397-1.859 33.559-.008 17.044.95 35.873 2.316 42.372 2.897 13.555 1.212 44.397-.425 51.774-1.423.701-.095 1.66-.164 2.7-.238 1.774-.128 5.428-.39 5.964-.946-.05-.017-.191-.198-.623-.486a.622.622 0 1 1 .69-1.035c.344.23 1.39.927 1.147 1.846-.34 1.287-2.905 1.562-7.089 1.861-1.008.073-1.942.138-2.622.23-5.551.75-24.323 1.86-39.129 1.86"></path>
    <path fill="#fff"
          d="m87.808 83.1-5.138-5.916a.67.67 0 0 0-.723-.248l-7.25 1.58c-.057.037-.133.056-.19.094L59.114 91.93c-.323.266-.343.742-.076 1.065l9.704 11.226a.76.76 0 0 0 1.085.076l15.393-13.32q.056-.086.114-.17l2.607-6.927c.114-.265.057-.55-.133-.78m-4.072.363a1.533 1.533 0 0 1-2.15-.171 1.533 1.533 0 0 1 .17-2.15 1.533 1.533 0 0 1 2.15.17 1.533 1.533 0 0 1-.17 2.15"></path>
    <path fill="#D66B8C"
          d="M68.42 100.785q-.015 0-.032-.002a.43.43 0 0 1-.297-.149l-1.738-2.01a.433.433 0 0 1 .045-.613l2.961-2.56a.43.43 0 0 1 .614.045l1.737 2.009a.43.43 0 0 1 .104.316.43.43 0 0 1-.149.297l-2.96 2.561a.43.43 0 0 1-.285.106m-1.123-2.4 1.168 1.35 2.301-1.992-1.168-1.35zM79.134 90.352a.43.43 0 0 1-.37-.207l-1.43-2.307c-.258-.42-.526-.854-.699-1.35l-.06-.184c-.113-.34-.24-.725-.448-.771-.081-.018-.222.01-.367.04-.254.057-.572.125-.9-.017-.49-.214-.725-.778-.63-1.508l.015-.123c.037-.285.077-.58-.032-.728-.089-.121-.328-.157-.538-.085-.275.095-.523.33-.765.558a.434.434 0 1 1-.597-.632c.293-.278.624-.592 1.075-.748.58-.2 1.204-.041 1.525.39.32.432.25.947.194 1.36l-.015.118c-.038.293.014.555.116.6.068.033.22-.003.367-.036.206-.045.463-.104.742-.04.69.154.918.846 1.085 1.35l.057.171c.14.406.382.799.617 1.176l1.429 2.31a.435.435 0 0 1-.371.663M74.227 90.03a.43.43 0 0 1-.392-.248l-.698-1.456c-.124-.258-.26-.504-.42-.548-.093-.03-.236.004-.39.036l-.184.035c-.5.085-.913-.056-1.133-.382-.205-.305-.155-.638-.12-.881.016-.093.037-.247.017-.287-.015-.012-.112-.034-.194 0-.167.067-.324.254-.462.42a.435.435 0 1 1-.668-.559c.184-.22.436-.522.807-.67.44-.174 1.043-.068 1.292.408.149.292.104.594.071.816-.012.087-.034.232-.017.27a.53.53 0 0 0 .265.007l.152-.03c.222-.046.5-.104.795-.023.566.154.832.713.975 1.013l.698 1.457a.433.433 0 0 1-.394.621"></path>
    <path fill="#47535E"
          d="M82.374 83.058a.62.62 0 0 1-.607-.485c-.916-4.037 3.922-13.317 8.487-16.277 2.56-1.657 4.367-1.05 5.432-.252a.623.623 0 0 1-.746.997c-1.091-.818-2.44-.718-4.01.3-4.364 2.829-8.687 11.71-7.95 14.958a.62.62 0 0 1-.606.759"></path>
    <path fill="#D66B8C"
          d="M158.017 11.676a.622.622 0 0 1-.439-1.062l8.461-8.46a.621.621 0 1 1 .879.88l-8.461 8.46a.62.62 0 0 1-.44.182"></path>
    <path fill="#F9D4E1"
          d="m139.232 18.584 2.556 5.18 5.716.83-4.136 4.033.977 5.693-5.113-2.688-5.113 2.688.976-5.693-4.137-4.032 5.717-.831zM122.715 29.284l1.432 2.901 3.202.465-2.317 2.26.547 3.188-2.864-1.506-2.864 1.506.547-3.189-2.317-2.259 3.202-.465zM45.672 109.354l1.692 3.427 3.782.55-2.737 2.668.646 3.767-3.383-1.779-3.383 1.779.646-3.767-2.737-2.668 3.782-.55z"></path>
    <path fill="#D66B8C"
          d="M62.966 95.593a.44.44 0 0 1-.324-.143l-2.24-2.488a.44.44 0 0 1 .033-.616l2.889-2.579a.436.436 0 0 1 .58.649l-2.562 2.288 1.946 2.163a.435.435 0 0 1-.322.726M153.042 123.898a.62.62 0 0 1-.613-.729c.009-.056.974-5.695.492-10.279a.62.62 0 0 1 .553-.684.617.617 0 0 1 .684.553c.501 4.76-.463 10.387-.504 10.624a.62.62 0 0 1-.612.515M150.803 122.156l-.043-.001a.623.623 0 0 1-.579-.663c.002-.038.253-3.772.5-5.999a.61.61 0 0 1 .688-.549.623.623 0 0 1 .549.688c-.245 2.199-.493 5.905-.496 5.943a.62.62 0 0 1-.619.581M38.946 16.653a.622.622 0 0 1-.14-1.228c2.093-.485 10.094-1.03 13.197-.505a.62.62 0 0 1 .51.716.613.613 0 0 1-.717.511c-2.746-.464-10.528-.012-12.71.49a.6.6 0 0 1-.14.016M41.317 18.893a.622.622 0 0 1-.218-1.204c2.086-.783 8.262-.545 8.523-.537.344.015.61.303.598.646-.014.344-.295.598-.646.598-1.716-.065-6.502-.116-8.038.457a.6.6 0 0 1-.219.04"></path>
    <path fill="#7B639D"
          d="M207.55 68.853v60.216c0 .593-.214 1.166-.603 1.612l-3.082 3.539a2.46 2.46 0 0 1-1.851.843h-80.152a1.637 1.637 0 0 1-1.637-1.637V73.21c0-.593.214-1.166.604-1.613l3.082-3.538a2.45 2.45 0 0 1 1.851-.843h80.151c.904 0 1.637.733 1.637 1.637"></path>
    <path fill="#FEC650"
          d="m159.179 91.998 1.219 2.267 2.559.28-1.779 1.86.523 2.52-2.319-1.117-2.234 1.276.346-2.55-1.904-1.731 2.532-.46z"></path>
    <path fill="#5E4882"
          d="M203.131 134.408a.41.41 0 0 1-.409-.409v-61.3h-81.76a.409.409 0 1 1 0-.818h82.169c.227 0 .409.183.409.41v61.708a.41.41 0 0 1-.409.409"></path>
    <path fill="#5E4882"
          d="M203.131 72.7a.407.407 0 0 1-.308-.678l3.273-3.765a.41.41 0 0 1 .617.537l-3.274 3.765a.4.4 0 0 1-.308.14"></path>
    <path fill="#FEC650"
          d="m133.145 78.986 2.631 2.038 3.171-1.013-1.125 3.132 1.943 2.703-3.327-.102-1.969 2.682-.932-3.195-3.159-1.044 2.75-1.873zM129.829 121.778l3.123 1.15 2.718-1.919-.13 3.325 2.666 1.992-3.203.905-1.071 3.15-1.849-2.766-3.328-.045 2.06-2.614zM191.623 77.999l1.602 2.013 2.567-.178-1.42 2.147.963 2.386-2.48-.688-1.972 1.653-.112-2.57-2.183-1.365 2.411-.902zM184.417 109.728l.267 2.56 2.259 1.232-2.352 1.044-.473 2.53-1.72-1.915-2.552.332 1.289-2.228-1.104-2.324 2.517.538z"></path>
    <path fill="#F5D3B5"
          d="M150.028 136.29c-.657 0-1.201-.52-1.226-1.182l-2.365-62.772a1.24 1.24 0 0 1 .115-.565l2.365-5.074a1.225 1.225 0 0 1 1.631-.594c.615.286.881 1.017.594 1.631l-2.239 4.805 2.354 62.476a1.227 1.227 0 0 1-1.181 1.273q-.024.002-.048.002M161.68 136.29q-.113 0-.228-.021a1.227 1.227 0 0 1-.98-1.433l8.965-47.809a1.227 1.227 0 1 1 2.413.453l-8.965 47.809a1.23 1.23 0 0 1-1.205 1.001"></path>
    <path fill="#fff"
          d="M169.904 81.13c-5.44 0-9.862 4.422-9.862 9.861s4.422 9.862 9.862 9.862c5.439 0 9.861-4.422 9.861-9.862s-4.423-9.862-9.861-9.862m.77 7.703a2.163 2.163 0 0 1-2.157-2.157c0-1.186.97-2.157 2.157-2.157 1.186 0 2.157.97 2.157 2.157a2.164 2.164 0 0 1-2.157 2.157"></path>
    <path fill="#FEC650"
          d="M125.627 96.679a2.046 2.046 0 1 1 4.092 0 2.046 2.046 0 0 1-4.092 0M193.801 102.817a2.046 2.046 0 1 1 4.092 0 2.046 2.046 0 0 1-4.092 0M154.107 119.104a1.883 1.883 0 1 1 3.766 0 1.883 1.883 0 0 1-3.766 0M195.356 124.341a1.883 1.883 0 1 1 3.765.001 1.883 1.883 0 0 1-3.765-.001M174.159 126.878a1.883 1.883 0 1 1 3.765.001 1.883 1.883 0 0 1-3.765-.001M137.903 107.81a1.883 1.883 0 1 1 3.766 0 1.883 1.883 0 0 1-3.766 0M154.026 76.137a1.883 1.883 0 1 1 3.765 0 1.883 1.883 0 0 1-3.765 0M177.923 77.119a1.883 1.883 0 1 1 3.766 0 1.883 1.883 0 0 1-3.766 0"></path>
    <path fill="#F5D3B5"
          d="M170.645 88.482q-.113 0-.228-.02a1.227 1.227 0 0 1-.98-1.434l2.806-14.964c.041-.22.14-.423.288-.59l4.505-5.073a1.23 1.23 0 0 1 1.734-.103 1.23 1.23 0 0 1 .102 1.734l-4.279 4.818-2.743 14.63a1.23 1.23 0 0 1-1.205 1.002"></path>
    <path fill="#CEA280"
          d="M164.502 128.024a.4.4 0 0 1-.129-.02c-.064-.022-1.576-.534-2.615-1.572a.41.41 0 0 1 .578-.579c.899.898 2.282 1.369 2.296 1.374a.408.408 0 0 1-.13.797M165.811 120.986a.4.4 0 0 1-.129-.021c-.064-.022-1.576-.533-2.615-1.572a.41.41 0 0 1 .578-.579c.899.899 2.282 1.37 2.296 1.374a.41.41 0 0 1-.13.798M168.758 105.927a.4.4 0 0 1-.13-.021c-.063-.022-1.577-.533-2.615-1.572a.41.41 0 0 1 0-.578.407.407 0 0 1 .579 0c.898.898 2.282 1.37 2.296 1.374a.41.41 0 0 1 .257.517.41.41 0 0 1-.387.28M172.358 85.63a.4.4 0 0 1-.129-.02c-.064-.021-1.577-.535-2.615-1.573a.409.409 0 1 1 .579-.578c.899.899 2.282 1.37 2.296 1.374a.41.41 0 0 1-.131.798M173.668 78.265a.4.4 0 0 1-.129-.02c-.064-.023-1.578-.536-2.615-1.574a.409.409 0 1 1 .579-.578c.898.899 2.281 1.37 2.295 1.374a.409.409 0 0 1-.13.798M167.448 113.293a.4.4 0 0 1-.129-.021c-.064-.021-1.576-.533-2.615-1.572a.408.408 0 1 1 .578-.578c.899.898 2.282 1.369 2.296 1.374a.408.408 0 0 1-.13.797M150.689 127.044c-.865-.578-2.072-1.407-2.681-2.016a.41.41 0 1 1 .579-.579c.622.622 2.071 1.59 2.547 1.908zM150.588 118.999a.4.4 0 0 1-.129-.021c-.6-.201-1.805-1.089-2.64-2.091a.409.409 0 0 1 .628-.524c.762.914 1.854 1.699 2.271 1.838a.41.41 0 0 1-.13.798M149.934 103.261a.4.4 0 0 1-.129-.02c-.6-.2-1.805-1.086-2.64-2.091a.408.408 0 1 1 .628-.524c.762.915 1.853 1.7 2.269 1.838a.408.408 0 0 1-.128.797M149.771 95.147a.4.4 0 0 1-.13-.02c-.6-.201-1.804-1.089-2.64-2.09a.408.408 0 1 1 .628-.524c.763.913 1.854 1.698 2.271 1.837a.41.41 0 0 1 .26.518.41.41 0 0 1-.389.279M149.279 87.033a.4.4 0 0 1-.13-.02c-.601-.201-1.805-1.089-2.64-2.091a.41.41 0 0 1 .629-.524c.762.913 1.853 1.699 2.27 1.838a.41.41 0 0 1-.129.797M148.952 78.92a.4.4 0 0 1-.129-.021c-.6-.2-1.805-1.089-2.64-2.091a.408.408 0 1 1 .628-.524c.762.914 1.854 1.7 2.27 1.838a.41.41 0 0 1-.129.797M150.261 110.884a.4.4 0 0 1-.128-.021c-.546-.181-1.907-1.025-2.453-1.572a.41.41 0 1 1 .579-.579c.44.44 1.699 1.231 2.131 1.374a.41.41 0 0 1-.129.798M149.116 72.536a.4.4 0 0 1-.152-.03c-.943-.377-1.818-1.114-2.179-1.834a.41.41 0 0 1 .733-.365c.272.544.992 1.136 1.75 1.44.21.084.312.322.227.532a.41.41 0 0 1-.379.257M150.916 68.444c-.386 0-2.373-.614-2.373-1.765a.408.408 0 1 1 .817 0c0 .384 1.2.927 1.559.946a.416.416 0 0 1 .395.42.4.4 0 0 1-.398.399M175.141 72.536a.4.4 0 0 1-.129-.02c-1.023-.342-2.081-1.193-2.081-2.026a.409.409 0 1 1 .818 0c0 .298.639.954 1.521 1.249.214.072.33.303.26.517a.41.41 0 0 1-.389.28M178.273 68.794a.4.4 0 0 1-.14-.025c-.358-.13-1.539-.657-1.759-1.977a.409.409 0 1 1 .807-.134c.147.883.98 1.25 1.232 1.342a.409.409 0 0 1-.14.794"></path>
    <path fill="#5E4882"
          d="M121.617 74.664a.41.41 0 0 1-.073-.813c1.803-.328 7.561-.338 10.084-.17.225.016.396.21.382.437a.406.406 0 0 1-.436.38c-2.485-.166-8.133-.16-9.883.16a1 1 0 0 1-.074.005M128.974 76.137l-.042-.003c-1.612-.16-2.907-.16-5.324.002-.214.026-.421-.154-.435-.381a.41.41 0 0 1 .381-.436c2.471-.166 3.797-.164 5.46.002a.41.41 0 0 1-.04.816M204.44 81.777a.41.41 0 0 1-.409-.41v-6.785a.41.41 0 0 1 .818 0v6.785c0 .227-.182.41-.409.41M205.586 78.592a.41.41 0 0 1-.409-.409v-2.128a.409.409 0 1 1 .818 0v2.128a.41.41 0 0 1-.409.41"></path>
    <path fill="#838689"
          d="M174.346 93.782a.29.29 0 0 1-.268-.185 1.29 1.29 0 0 0-1.122-.803 6 6 0 0 0-.35.016c-.356.027-.758.058-1.091-.207-.218-.173-.324-.42-.418-.639-.084-.196-.157-.364-.28-.425-.112-.053-.274-.023-.46.012-.203.04-.432.083-.673.024-.22-.055-.389-.182-.538-.295q-.086-.067-.177-.126c-.082-.051-.291-.01-.459.023-.19.036-.388.073-.578.046-.226-.034-.401-.142-.555-.237-.161-.1-.27-.16-.371-.145l-.098.015c-.173.027-.392.063-.607-.016q-.37-.139-.562-.642l-.055-.154c-.047-.134-.091-.26-.16-.35-.062-.077-.161-.112-.189-.095a.286.286 0 1 1-.286-.496c.333-.192.727-.02.928.24.127.164.191.35.247.514l.05.138c.065.17.142.276.226.308.075.025.192.01.315-.013l.11-.016c.313-.044.556.105.752.224.118.073.229.142.339.159.097.012.241-.016.384-.042.281-.054.598-.116.87.052.075.047.148.102.22.156.12.091.224.17.33.196.115.029.267 0 .428-.03.252-.047.534-.101.818.036.316.152.444.45.556.713.073.171.143.334.25.418.155.125.401.104.688.084.14-.011.28-.02.412-.017a1.86 1.86 0 0 1 1.64 1.172.286.286 0 0 1-.266.387M167.649 94.544a.28.28 0 0 1-.234-.122c-.1-.143-.302-.184-.622-.236-.312-.05-.665-.106-.928-.361-.089-.086-.154-.185-.213-.272-.065-.097-.127-.189-.19-.214-.088-.039-.239.045-.398.13-.228.123-.517.274-.837.181-.285-.082-.45-.318-.576-.539-.089-.157-.162-.284-.253-.331-.022-.01-.061-.006-.073.004a.255.255 0 0 1-.302.234c-.158-.015-.262-.177-.247-.335a.52.52 0 0 1 .274-.403.67.67 0 0 1 .605-.013c.246.125.376.354.481.538.077.134.162.267.252.294.095.028.247-.052.408-.136.242-.13.545-.29.881-.157.226.09.351.277.451.427.046.069.091.135.137.18.132.128.368.166.618.206.355.057.756.12 1.002.474.09.13.058.308-.072.398a.28.28 0 0 1-.164.053M173.707 96.381a.29.29 0 0 1-.257-.158c-.11-.222-.562-.201-.696-.193-.448.036-.921.076-1.273-.23a1.6 1.6 0 0 1-.302-.397c-.076-.128-.142-.24-.225-.28-.065-.032-.164-.033-.283-.029-.132 0-.282.003-.436-.046-.207-.065-.359-.198-.492-.315-.124-.108-.225-.187-.313-.197-.014.157-.184.263-.336.26-.158-.013-.302-.154-.289-.312a.54.54 0 0 1 .201-.374.67.67 0 0 1 .492-.143c.243.03.429.166.593.309.129.114.223.196.315.225a.9.9 0 0 0 .261.02c.161 0 .349-.002.535.086.239.116.367.33.47.503.061.103.118.2.185.257.171.15.48.123.782.098.693-.06 1.136.124 1.324.502a.287.287 0 0 1-.256.414M169.028 97.94c-.256 0-.536-.109-.805-.321a4 4 0 0 1-.168-.138c-.165-.138-.322-.27-.489-.313a1.4 1.4 0 0 0-.312-.028c-.185-.003-.394-.007-.598-.101-.212-.098-.356-.264-.485-.41-.115-.132-.215-.246-.325-.273-.09-.024-.205.003-.331.032-.181.039-.386.084-.604.025s-.378-.204-.507-.32c-.105-.095-.204-.178-.285-.188 0 .158-.146.273-.304.273a.31.31 0 0 1-.303-.299c0-.148.064-.285.181-.389a.65.65 0 0 1 .494-.154c.269.033.473.216.582.315.115.105.206.186.29.21.087.023.205-.005.333-.031.177-.039.375-.082.592-.03.283.072.461.274.617.452.1.114.194.22.294.267.095.044.222.046.369.05.136.002.29.005.445.045.293.076.516.264.713.43l.152.125c.082.065.365.267.553.179a.286.286 0 0 1 .379.144.286.286 0 0 1-.144.378.8.8 0 0 1-.334.07"></path>
    <path fill="#47535E"
          d="M53.072 81.096V137.2c0 .523-.188 1.029-.532 1.425l-2.588 2.987a2.18 2.18 0 0 1-1.643.75H1.45a1.45 1.45 0 0 1-1.45-1.45V84.808c0-.523.188-1.029.53-1.425l2.59-2.986a2.17 2.17 0 0 1 1.643-.75h46.858c.8 0 1.45.649 1.45 1.45"></path>
    <path fill="#F2A1B6" d="m49.664 141.94-.363.42h-4.958L0 98.018V92.29l49.302 49.288z"></path>
    <path fill="#2E383F"
          d="M49.302 142.186a.333.333 0 0 1-.334-.333V84.329H.654a.333.333 0 1 1 0-.666h48.649c.184 0 .333.15.333.333v57.856c0 .185-.15.334-.333.334"></path>
    <path fill="#2E383F"
          d="M49.302 84.329a.333.333 0 0 1-.253-.55l2.972-3.48a.333.333 0 0 1 .506.433l-2.973 3.48a.33.33 0 0 1-.252.117"></path>
    <path fill="#F2A1B6"
          d="M24.506 142.36h-5.713L0 123.583v-5.728zM17.285 83.996l32.017 32.032v5.712L11.557 83.996zM42.85 83.996l6.451 6.453v5.713l-12.18-12.166zM14.457 79.646l-2.9 4.35h5.728l2.9-4.35zM40.021 79.646l-2.9 4.35h5.728l2.9-4.35z"></path>
    <path fill="#D66B8C" d="M16.9 84.33h-4.958a.333.333 0 1 1 0-.667h4.957a.333.333 0 1 1 0 .666"></path>
    <path fill="#F2A1B6" d="M49.302 90.449v5.713l3.77-2.9v-5.713zM49.302 115.97v5.713l3.77-2.9v-5.714z"></path>
    <path fill="#F9D4E1" d="M27.334 142.36c-1.85.327-3.643.352-5.365 0V83.996h5.365z"></path>
    <path fill="#F5D3B5"
          d="m27.812 81.922-.392.13c-.464.145-.855.277-1.174.349.029-.276.087-.58.203-.928.203-.58.522-1.262.928-1.987.246.551.333 1.305.101 2.32.117.03.232.073.334.116M22.911 81.531a9 9 0 0 1-1.276 0 5.3 5.3 0 0 1-.058-.957c.507.406.957.74 1.334.957"></path>
    <path fill="#F9D4E1"
          d="M41.892 95.002c-.348-.13-5.873-2.465-8.396-2.886 0 0-.725 3.19-1.885 5.075 0 0-1.32-8.396-4.713-12.862l-.247-.29a8.5 8.5 0 0 0-.84-.914c-.233-.217-.421-.406-.58-.58-1.088-1.145-.697-1.407.188-1.29.305.029.652.116 1.03.217.333.102.68.203 1.029.334.116.029.232.073.333.116.9.319 1.625.623 1.625.623.55.146 1.203.479 1.885.957 4.19 2.901 10.208 10.992 10.57 11.5M23.592 84.554c-4.161 5.533-6.046 9.158-7.786 14.813 0 0-1.74-2.175-1.595-5.655 0 0-4.649 3.35-6.167 5.88 0 0-1.374-9.07 15.447-16.61z"></path>
    <path fill="#F9D4E1"
          d="M24.39 78.385c-3.103-7.787-10.86-18.228-19.024-9.469-6.815 7.323 5.858 14.892 14.761 15.719 1.059.087 2.06.087 2.959-.015.174-.014.347-.029.507-.073.217-.028.42-.072.624-.115l.435-5.351zm-16.125-3.96c2.813-3.711 9.57 3.176 13.312 6.149-.014.319.015.638.058.957-5.394-.32-15.182-4.713-13.37-7.105M42.631 67.32C32.438 57.954 27.74 70.527 26 78.226a45 45 0 0 0-.58 3.03c-.086.508-.145.943-.188 1.291v1.667c.217.116.653.16 1.247.13.13 0 .26 0 .42-.014 1.117-.087 2.668-.363 4.423-.826 8.12-2.073 20.286-7.917 11.31-16.182M27.812 81.923a2.3 2.3 0 0 0-.334-.115c.232-1.016.146-1.77-.101-2.32 2.479-4.365 8.352-10.325 11.34-7.236 3.334 3.451-6.236 8.048-10.905 9.671"></path>
    <path fill="#F9D4E1"
          d="M27.478 81.807c-.014.072-.044.159-.058.246-.145.566-.391 1.218-.739 1.943-.015.014-.015.029-.029.044a1 1 0 0 1-.174.304c-.943 1.639-2.147 1.48-3.132.537a2 2 0 0 1-.261-.261 6.2 6.2 0 0 1-.754-1.103 6.6 6.6 0 0 1-.697-1.986 5.3 5.3 0 0 1-.058-.958c.044-1.392.827-2.45 2.813-2.189l.262.044c.057-.29.681-.42 1.348-.203a2.2 2.2 0 0 1 1.377 1.261c.248.552.334 1.305.102 2.32"></path>
    <path fill="#C9A1B1"
          d="M24.807 85.918c-.562 0-1.142-.272-1.69-.797a2.5 2.5 0 0 1-.284-.284 6.5 6.5 0 0 1-.796-1.162 7 7 0 0 1-.73-2.088 5.6 5.6 0 0 1-.062-1.028c.026-.858.315-1.547.833-1.988.558-.474 1.346-.646 2.355-.517l.054.01a.8.8 0 0 1 .156-.12c.343-.2.916-.213 1.46-.036.73.236 1.29.751 1.581 1.45.165.368.255.8.262 1.275.007.384-.041.803-.142 1.248l-.027.109q-.017.058-.027.12c-.16.62-.415 1.294-.767 2.03a.3.3 0 0 1-.033.053 1.4 1.4 0 0 1-.215.364c-.444.78-1.021 1.249-1.682 1.343a2 2 0 0 1-.246.018m-.994-7.241c-.549 0-.988.134-1.302.402-.47.4-.586 1.04-.6 1.506-.013.258.004.535.054.902.105.612.333 1.264.66 1.874.2.373.447.735.712 1.041q.111.131.222.223c.35.333.858.697 1.399.618.449-.065.863-.423 1.232-1.064a1 1 0 0 0 .15-.254q.017-.045.047-.085l.004-.005c.33-.69.567-1.316.707-1.863.005-.034.02-.093.036-.15l.019-.081.002-.007q.135-.59.126-1.088a2.6 2.6 0 0 0-.208-1.022 1.89 1.89 0 0 0-1.176-1.081c-.503-.165-.874-.073-.937-.01-.036.176-.189.254-.363.225l-.262-.044a4 4 0 0 0-.522-.037"></path>
    <path fill="#C9A1B1"
          d="M24.433 82.88a.333.333 0 0 1-.235-.57c.45-.449 1.306-2.154 1.03-3.041-.09-.287-.292-.45-.637-.514a.333.333 0 0 1 .12-.654c.746.137 1.038.603 1.152.97.389 1.247-.674 3.19-1.195 3.71a.33.33 0 0 1-.235.098M26.608 84.474a.333.333 0 0 1-.036-.663c.036-.004 3.6-.407 4.64-.767a.333.333 0 0 1 .217.63c-1.11.384-4.634.782-4.783.799zM21.356 84.999c-.432 0-.868-.024-1.2-.098a.333.333 0 0 1 .145-.65c.847.187 2.628-.003 2.646-.006a.333.333 0 0 1 .073.662c-.05.005-.85.092-1.664.092"></path>
    <path fill="#C9A1B1"
          d="M21.969 87.114a.333.333 0 0 1-.292-.494c.223-.403 1.162-1.62 1.268-1.757a.333.333 0 0 1 .527.407c-.28.362-1.044 1.37-1.212 1.673a.33.33 0 0 1-.291.171M27.287 85.204a.33.33 0 0 1-.268-.136l-.534-.73a.333.333 0 0 1 .537-.393l.533.73a.333.333 0 0 1-.268.53"></path>
    <path fill="#D66B8C"
          d="M42.527 84.33h-5.084a.333.333 0 1 1 0-.667h5.084a.333.333 0 1 1 0 .666M49.302 96.069a.333.333 0 0 1-.334-.334v-5.052a.333.333 0 1 1 .667 0v5.052c0 .184-.15.334-.334.334M49.302 121.733a.333.333 0 0 1-.334-.333v-5.447a.333.333 0 1 1 .667 0v5.447c0 .184-.15.333-.334.333"></path>
    <path fill="#C9A1B1"
          d="M27.615 75.774a.334.334 0 0 1-.328-.395c.284-1.513 1.004-3.662 1.671-4.497a.336.336 0 0 1 .469-.052.334.334 0 0 1 .052.468c-.52.65-1.239 2.615-1.538 4.204a.33.33 0 0 1-.326.272M28.784 74.904a.333.333 0 0 1-.327-.398c.157-.786.894-1.825.925-1.868a.333.333 0 1 1 .542.386c-.19.267-.707 1.077-.814 1.613a.33.33 0 0 1-.326.267M41.35 74.744h-.008a.334.334 0 0 1-.325-.341 5.76 5.76 0 0 0-1.958-4.445 5.76 5.76 0 0 0-4.673-1.323.334.334 0 0 1-.11-.657 6.43 6.43 0 0 1 5.22 1.478 6.44 6.44 0 0 1 2.187 4.963.33.33 0 0 1-.333.325"></path>
    <path fill="#C9A1B1"
          d="M33.983 71.326a.332.332 0 0 1-.243-.56 5.24 5.24 0 0 1 4.257-1.61c.183.019.317.181.3.364a.337.337 0 0 1-.365.3 4.55 4.55 0 0 0-3.706 1.4.33.33 0 0 1-.243.106M8.456 77.94a.33.33 0 0 1-.179-.052c-1.246-.798-1.947-2.379-1.745-3.934.185-1.427 1.09-2.764 2.418-3.576 1.181-.72 2.676-1.027 4.218-.863a.333.333 0 1 1-.071.662c-1.389-.147-2.742.124-3.8.769-1.158.708-1.944 1.864-2.103 3.093-.168 1.284.425 2.636 1.443 3.288a.333.333 0 0 1-.18.614"></path>
    <path fill="#C9A1B1"
          d="M12.853 73.088a.33.33 0 0 1-.25-.113 3.6 3.6 0 0 0-3.244-1.141.33.33 0 0 1-.385-.27.333.333 0 0 1 .27-.386c1.404-.242 2.92.287 3.86 1.356a.333.333 0 0 1-.25.554M22.729 77.26a.33.33 0 0 1-.314-.222 10 10 0 0 0-2.6-3.981.334.334 0 0 1-.015-.47.335.335 0 0 1 .47-.016 10.7 10.7 0 0 1 2.773 4.245.333.333 0 0 1-.314.444M21.058 76.205a.33.33 0 0 1-.292-.174 3.8 3.8 0 0 0-.886-1.086.332.332 0 1 1 .428-.51c.427.359.778.789 1.043 1.278a.333.333 0 0 1-.293.492M35.755 90.335a.33.33 0 0 1-.28-.152 18.6 18.6 0 0 0-4.07-4.485.332.332 0 1 1 .413-.521 19.2 19.2 0 0 1 4.217 4.644.333.333 0 0 1-.28.514M32.955 88.78c-.101 0-.2-.046-.267-.133l-1.295-1.721a.333.333 0 0 1 .531-.4l1.296 1.72a.333.333 0 0 1-.265.534M10.23 95.41a.333.333 0 0 1-.305-.467 16.75 16.75 0 0 1 6.041-7.161.33.33 0 0 1 .461.094c.102.154.06.36-.094.461a16.1 16.1 0 0 0-5.798 6.874.33.33 0 0 1-.305.198M13.524 92.859a.332.332 0 0 1-.273-.523 8.4 8.4 0 0 1 1.85-1.915.333.333 0 0 1 .4.533 7.7 7.7 0 0 0-1.703 1.762.33.33 0 0 1-.274.143M25.883 114.49a.334.334 0 0 1-.333-.333v-12.47a.333.333 0 1 1 .666 0v12.47c0 .184-.15.333-.333.333M24.506 108.79a.333.333 0 0 1-.333-.333v-5.253a.334.334 0 1 1 .667 0v5.253c-.001.184-.15.333-.334.333"></path>
    <path fill="#2E383F"
          d="M47.924 107.965a.332.332 0 0 1-.311-.45c.41-1.095-.058-8.948-.41-9.572a.337.337 0 0 1 .121-.455.33.33 0 0 1 .451.113c.54.9.907 8.961.461 10.148a.33.33 0 0 1-.312.216M46.764 106.08q-.076 0-.15-.036a.333.333 0 0 1-.149-.447c.099-.362.097-4.304-.441-5.516a.334.334 0 0 1 .609-.27c.603 1.359.638 5.663.428 6.084a.33.33 0 0 1-.297.185"></path>
</svg>