<svg xmlns="http://www.w3.org/2000/svg" width="287" height="161" fill="none" class="styles_icon__pUY_O">
    <path fill="#C18578"
          d="m113.941 84.99-.019 17.25c-.008 7.064-6.836 12.107-13.578 10.029a10.505 10.505 0 0 1-7.358-11.044l2.688-28.04 9.823-1.302z"></path>
    <path fill="#C18578"
          d="m95.156 78.576.516-5.391 7.284-.965 4.159 2.176 6.825 10.592-.01 8.884c-15.162-3.51-18.773-15.295-18.774-15.296"></path>
    <path fill="#E59A89"
          d="M93.723 79.023s-2.426-3.34-4.934-7.581c-4.232-7.155-6.733-15.306 3.428-22.422 9.332-6.535 20.168-7.55 24.302 4.031 0 0 13.044 26.902-1.521 32.189-14.563 5.288-21.275-6.217-21.275-6.217"></path>
    <path fill="#1D1D1B"
          d="M109.329 47.797s3.358 10.335 10.124 7.3c0 0-.827-17.944-16.626-15.886-3.347.435-4.256-4.176-13.953.954-8.78 4.645-9.22 12.445-12.645 16.057-5.034 5.308 2.644 13.852 3.577 15.974l6.078 1.218s4.033 3.865 8.464.773c0 0-8.61-9.33 1.22-13.737 7.789-3.492 5.446-17.454 13.761-12.654"></path>
    <path fill="#E59A89"
          d="M93.923 79.246c-.55-2.042-1.449-3.986-2.748-5.721-1.782-2.38-4.264-4.535-7.133-2.549-4.884 3.383 1.766 11.158 7.315 10.961 1.632-.057 2.913-1.405 2.566-2.69"></path>
    <path fill="#000"
          d="M91.814 78.149a.42.42 0 0 1-.37-.221c-.088-.162-2.207-3.953-5.66-2.569a.422.422 0 0 1-.312-.782c4.166-1.677 6.685 2.903 6.711 2.949a.42.42 0 0 1-.169.57.4.4 0 0 1-.2.053"></path>
    <path fill="#1D1D1B"
          d="M109.493 76.994c.093-.594.437-1.052.766-1.486.343-.434.745-.783 1.154-1.157.886-.633 1.884-1.22 3.031-1.22.025 0 .045.02.045.044 0 .016-.011.032-.022.04-.866.656-1.695 1.206-2.469 1.873-.415.288-.806.642-1.216.95-.405.316-.828.622-1.201.983l-.013.012a.045.045 0 0 1-.064-.001.04.04 0 0 1-.011-.038"></path>
    <path fill="#fff"
          d="M110.71 63.703s3.461-1.775 7.084-1.88c0 0 .021 1.208-.253 2.016-.56 1.65-3.818 4.964-6.831-.136"></path>
    <mask id="reason_svg__a" width="8" height="6" x="110" y="61" maskUnits="userSpaceOnUse" style="mask-type:luminance">
        <path fill="#fff"
              d="M110.71 63.703s3.461-1.775 7.084-1.88c0 0 .021 1.208-.253 2.016-.56 1.65-3.818 4.964-6.831-.136"></path>
    </mask>
    <g mask="url(#reason_svg__a)">
        <path fill="#000"
              d="M112.898 62.985c.273 1.407 1.6 2.334 2.963 2.07 1.364-.265 2.248-1.621 1.975-3.03s-1.6-2.335-2.963-2.07c-1.364.266-2.248 1.622-1.975 3.03"></path>
    </g>
    <path fill="#1D1D1B"
          d="m108.956 68.004 2.114 1.92a.406.406 0 0 1 .06.532l-.031.046-1.03 1.472a.47.47 0 1 1-.771-.54l1.03-1.473.027.576-1.564-2.39a.11.11 0 0 1 .165-.143M118.024 61.73c-1.284.552-2.616.914-3.946 1.29-1.338.345-2.676.688-4.057.88a.221.221 0 0 1-.116-.423c1.286-.542 2.613-.93 3.94-1.32 1.34-.343 2.683-.677 4.072-.834.115-.013.22.07.234.187a.215.215 0 0 1-.127.22"></path>
    <path fill="#fff"
          d="M104.42 65.818s-3.83.676-6.782 2.782c0 0 .712.975 1.417 1.454 1.442.978 6.037 1.652 5.365-4.236"></path>
    <mask id="reason_svg__b" width="8" height="6" x="97" y="65" maskUnits="userSpaceOnUse" style="mask-type:luminance">
        <path fill="#fff"
              d="M104.42 65.818s-3.83.676-6.782 2.782c0 0 .712.975 1.417 1.454 1.442.978 6.037 1.652 5.365-4.236"></path>
    </mask>
    <g mask="url(#reason_svg__b)">
        <path fill="#000"
              d="M104.402 65.84c.632 1.288.132 2.829-1.115 3.442s-2.77.065-3.4-1.222c-.632-1.288-.133-2.828 1.115-3.441 1.247-.612 2.769-.066 3.4 1.222"></path>
    </g>
    <path fill="#1D1D1B"
          d="M97.24 68.277c1.202-.714 2.473-1.26 3.748-1.795 1.293-.493 2.586-.985 3.937-1.33a.22.22 0 0 1 .162.405c-1.216.682-2.49 1.217-3.765 1.752-1.287.504-2.567 1.02-3.924 1.356a.211.211 0 0 1-.159-.389"></path>
    <path fill="#000"
          d="M108.684 59.32c.412-.91.891-1.766 1.41-2.59l.158-.158c.371-.426.943-.94 1.849-1.095.904-.131 1.622.162 2.11.411.864.472 1.691 1.03 2.394 1.866a.644.644 0 0 1-.463 1.057c-1.091.048-2.06-.183-2.992-.5a4 4 0 0 0-.73-.198c-.08-.04-.361.02-.744.204l.157-.157a21 21 0 0 1-2.259 1.893.597.597 0 0 1-.89-.733M103.544 60.528c-.629 1.224-1.565 1.983-2.579 2.62-1.026.62-2.11 1.153-3.422 1.342a.636.636 0 0 1-.634-.963c.69-1.132 1.605-1.92 2.579-2.62.985-.684 2.049-1.246 3.421-1.342a.662.662 0 0 1 .635.963"></path>
    <path fill="#F5F4F9"
          d="m117.221 93.873 15.161 43.699 3.605 26.337-24.787-11.858-22.839-64.794v-4.21l21.902 14.984 4.618-6.577z"></path>
    <path fill="#F4DECE"
          d="M93.63 90.43s25.509 39.299 33.103 58.009 2.009-17.194 2.009-17.194.25-7.005-13.092-30.953l1.571-6.418s6.205 3.674 12.888 6.668c6.682 2.993 30.349 72.219 30.349 72.219H78.907s-21.616-50.119-12.789-61.844 22.243-23.66 22.243-23.66 1.664-2.47 5.268 3.172"></path>
    <path fill="#E59A89"
          d="M123.868 104.669s-2.744-1.761-1.009-6.742-1.752-5.164-1.913-4.347-3.051 1.897-2.653-1.568-.301-4.887 2.287-4.778c0 0-.291-3.177 1.091-3.183s.696-3.262 2.835-2.983c2.138.28 3.707 2.055 3.707 2.055s-.209-4.06-5.024-3.82c-4.815.241-4.385-2.843.538-3.206 4.922-.363 8.842 1.132 10.737 5.705 1.896 4.574-2.553 12.68-2.265 16.363.287 3.686-1.053 10.18-8.331 6.504"></path>
    <path fill="#1D1D1B"
          d="M126.242 91.363a.47.47 0 0 1-.256-.075l-5.662-3.658a.472.472 0 0 1 .511-.792l5.662 3.658a.472.472 0 0 1-.255.867M127.817 88.515a.47.47 0 0 1-.256-.076l-6.147-3.992a.47.47 0 0 1-.14-.652.47.47 0 0 1 .65-.14l6.147 3.993a.472.472 0 0 1-.254.867M104.766 106.858a.448.448 0 0 1-.376-.697l5.703-8.69 5.729 2.404a.449.449 0 1 1-.345.83l-5.043-2.115-5.294 8.063a.44.44 0 0 1-.374.205M103.029 115.033a.44.44 0 0 1-.261-.084c-5.373-3.861-14.433-23.497-14.815-24.332a.45.45 0 0 1 .816-.375c.094.202 9.34 20.255 14.521 23.977a.45.45 0 0 1 .105.627.45.45 0 0 1-.366.187M129.495 159.592a.45.45 0 0 1-.351-.169l-28.699-35.868 12.26-2.363a.45.45 0 0 1 .169.884l-10.796 2.081 27.769 34.704a.451.451 0 0 1-.352.731M129.495 116.86a.45.45 0 0 1-.393-.233l-7.821-14.189a.45.45 0 0 1 .786-.435l7.821 14.19a.45.45 0 0 1-.393.667M146.841 172.741a.447.447 0 0 1-.448-.424c-2.233-39.265-9.016-55.571-9.084-55.73a.45.45 0 0 1 .827-.353c.068.161 6.909 16.579 9.153 56.033a.45.45 0 0 1-.423.474zM132.445 157.219l-.03-.001a.45.45 0 0 1-.419-.479l2.348-34.753-7.106-1.643a.45.45 0 0 1-.337-.54.44.44 0 0 1 .539-.336l7.852 1.814-2.398 35.517a.45.45 0 0 1-.449.421"></path>
    <path fill="#F4DECE"
          d="m120.248 97.078 25.8 12.927-24.814 49.651c-3.565 7.134-12.231 10.023-19.356 6.454-7.125-3.571-10.01-12.247-6.445-19.381z"></path>
    <path fill="#1D1D1B"
          d="m99.646 139.336-8.229-15.648c-3.9-7.023-8.938-11.073-14.567-11.702-4.23-.471-7.33 1.136-7.36 1.153a.45.45 0 0 1-.419-.795c.134-.068 13.31-6.785 23.137 10.916l7.401 14.078 9.95-20.713a.444.444 0 0 1 .599-.209.447.447 0 0 1 .21.599zM106.223 167.179c-1.417 0-2.907-.195-4.468-.638-13.835-3.92-22.66-11.986-22.748-12.067a.45.45 0 0 1 .61-.661c.087.079 8.763 8.004 22.384 11.863 13.38 3.794 21.508-11.584 21.591-11.739a.45.45 0 0 1 .797.413c-.074.143-6.779 12.829-18.166 12.829M117.536 102.956a.45.45 0 0 1-.403-.651l2.914-5.83 4.144 2.076a.45.45 0 0 1-.401.805l-3.343-1.674-2.51 5.026a.45.45 0 0 1-.401.248M130.135 142.3a.452.452 0 0 1-.403-.651l10.725-21.462a.451.451 0 0 1 .805.404l-10.725 21.461a.45.45 0 0 1-.402.248"></path>
    <path fill="#B15339"
          d="M245.55 51.739s4.041 20.902 4.092 55c.029 19.576-23.429 16.794-37.609 15.309-14.18-1.484-4.097-69.33-4.097-69.33z"></path>
    <path fill="#FAD3C4"
          d="m214.198 81.397.019 17.252c.008 7.064 6.836 12.107 13.579 10.029a10.504 10.504 0 0 0 7.357-11.044l-2.687-28.04-9.824-1.301z"></path>
    <path fill="#E2B7AB"
          d="m232.983 74.984-.516-5.391-7.283-.965-4.16 2.175-6.826 10.593.01 8.884c15.164-3.51 18.774-15.296 18.775-15.296"></path>
    <path fill="#FAD3C4"
          d="M231.56 73.484s2.12-3.543 4.242-7.99c3.581-7.504 5.349-15.843-5.403-22.028-9.875-5.68-20.759-5.726-23.849 6.176 0 0-10.606 27.956 4.37 31.927s20.64-8.085 20.64-8.085"></path>
    <path fill="#B15339"
          d="M227.772 49.164s-8.49 5.472-23.366 2.413c0 0 2.685-19.198 24.206-13.53 14.348 3.778 17.734 12.52 17.882 19.456.083 3.919-2.006 7.816-2.006 7.816l-3.717 6.896-6.993-2.71s-10.978-7.486-6.006-20.341"></path>
    <path fill="#fff"
          d="M210.346 65.26s.107-9.797-5.18-4.467c0 0 .082 1.4.449 2.17.612 1.283 2.186 2.182 4.731 2.297"></path>
    <mask id="reason_svg__c" width="6" height="7" x="205" y="59" maskUnits="userSpaceOnUse" style="mask-type:luminance">
        <path fill="#fff"
              d="M210.346 65.26s.107-9.797-5.18-4.467c0 0 .082 1.4.449 2.17.612 1.283 2.186 2.182 4.731 2.297"></path>
    </mask>
    <g mask="url(#reason_svg__c)">
        <path fill="#000"
              d="M209.794 61.094c-.367 1.386-1.576 2.269-2.701 1.97-1.125-.298-1.741-1.663-1.375-3.05s1.576-2.269 2.701-1.97c1.125.297 1.741 1.663 1.375 3.05"></path>
    </g>
    <path fill="#1D1D1B"
          d="M211.795 74.443c.017-.695.293-1.372.768-1.932.47-.574 1.215-.905 1.946-1.027.729-.042 1.501.062 2.122.44.624.363 1.129.886 1.402 1.525a.045.045 0 0 1-.024.06c-.015.005-.036 0-.048-.009-1.06-.786-2.2-1.257-3.344-1.08-1.137.074-2.044.916-2.732 2.046a.046.046 0 0 1-.063.022.06.06 0 0 1-.027-.045M213.57 65.734l-1.346 2.52-.023-.575 1.155 1.374a.47.47 0 1 1-.718.607l-1.156-1.374-.036-.042a.404.404 0 0 1 .012-.535l1.936-2.1a.11.11 0 0 1 .155-.007.11.11 0 0 1 .021.132M204.989 60.68c.465-.805 1.089-1.563 2.076-1.93a2.28 2.28 0 0 1 1.573.009c.49.218.905.474 1.258.898.631.853.806 1.818.887 2.733a10.4 10.4 0 0 1-.181 2.731.22.22 0 0 1-.257.173.23.23 0 0 1-.178-.224 19 19 0 0 0-.178-2.594c-.127-.835-.33-1.686-.79-2.258-.471-.572-1.2-.94-1.903-.723-.715.191-1.413.775-1.953 1.41l-.013.016a.21.21 0 0 1-.295.023.21.21 0 0 1-.046-.264"></path>
    <path fill="#fff"
          d="M216.744 66.795s3.982-8.836 8.277-1.261c0 0-.898.921-1.574 1.44-1.126.866-2.745 1.334-6.703-.18"></path>
    <mask id="reason_svg__d" width="10" height="6" x="216" y="62" maskUnits="userSpaceOnUse"
          style="mask-type:luminance">
        <path fill="#fff"
              d="M216.744 66.795s3.982-8.836 8.277-1.261c0 0-.898.921-1.574 1.44-1.126.866-2.745 1.334-6.703-.18"></path>
    </mask>
    <g mask="url(#reason_svg__d)">
        <path fill="#000"
              d="M217.386 62.747c-.514 1.339.12 2.829 1.416 3.328 1.297.5 2.765-.18 3.278-1.52.515-1.338-.119-2.828-1.415-3.327s-2.764.18-3.279 1.519"></path>
    </g>
    <path fill="#1D1D1B"
          d="M224.621 65.543c-.275-.876-.776-1.728-1.461-2.232-.68-.51-1.582-.638-2.436-.424-.808.169-1.533.782-2.137 1.478-.61.7-1.143 1.515-1.601 2.347l-.006.012a.219.219 0 0 1-.398-.176c.321-.96.763-1.866 1.387-2.687.614-.804 1.441-1.575 2.563-1.849 1.031-.228 2.277-.065 3.115.689.846.733 1.25 1.75 1.388 2.771a.21.21 0 0 1-.407.092z"></path>
    <path fill="#000"
          d="M212.371 55.213a14 14 0 0 0-1.33.002c-.441.038-.89.067-1.372.14-1.147.123-1.945.151-3.208.207h-.026a.649.649 0 0 1-.586-.978c.365-.618.942-1.081 1.581-1.387.642-.318 1.306-.453 1.925-.532.693-.068 1.444-.031 2.166.243.729.273 1.391.735 1.771 1.613a.505.505 0 0 1-.477.706zM218.795 55.747c1.625-.762 3.423-.336 4.812.566a6.2 6.2 0 0 1 1.681 1.766c.418.652.741 1.37.848 2.179a.626.626 0 0 1-.958.612l-.03-.02a19 19 0 0 1-1.642-1.208c-.505-.39-.986-.81-1.406-1.08-.469-.329-.959-.603-1.471-.884-.508-.256-1.1-.543-1.664-.79l-.156-.068a.59.59 0 0 1-.014-1.073"></path>
    <path fill="#FAD3C4"
          d="M231.379 73.723c.367-2.083 1.09-4.099 2.23-5.943 1.564-2.53 3.845-4.896 6.879-3.173 5.166 2.935-.769 11.27-6.313 11.568-1.631.088-3.026-1.14-2.796-2.452"></path>
    <path fill="#000"
          d="M233.346 72.445a.422.422 0 0 1-.386-.588c.022-.05 2.137-4.818 6.422-3.536a.42.42 0 0 1 .281.526.42.42 0 0 1-.523.282c-3.582-1.083-5.337 2.891-5.408 3.06a.42.42 0 0 1-.386.256"></path>
    <path fill="#DAA9B5"
          d="M194.827 149.855s-1.527-32.884-5.016-47.589c-.553-2.336.617-4.73 2.876-5.533l18.151-6.714 10.944 6.065 16.48-3.414 15.378 6.23a4.577 4.577 0 0 1 2.672 5.529l-11.68 56.088 3.428 12.243-27.057-.468-4.26-11.853-4.082 11.853-27.15-.488z"></path>
    <path fill="#DAA9B5"
          d="m279.815 127.018-14.435-16.312-8.925-9.725c-5.388-5.875-14.514-6.265-20.382-.87-5.869 5.396-6.257 14.532-.869 20.408l14.438 16.309 8.922 9.728c5.388 5.876 14.513 6.265 20.382.87 5.868-5.395 6.257-14.532.869-20.408"></path>
    <path fill="#FAD3C4" d="m266.467 137.274-20.071 23.601 6.647 8.768 23.11-19.563z"></path>
    <path fill="#FAD3C4"
          d="M253.363 168.484s-2.609 7.574-8.282 6.419c-5.673-1.153-9.695 2.162-11.235 3.091-1.538.93-4.928.692-3.347-3.169 0 0-6.69 2.019-4.677-2.86 0 0-5.043-1.869.403-5.07s11.616-3.092 11.616-3.092-6.049-2.842-10.761-.858c-4.713 1.984-4.185-5.053 4.474-5.798s8.375 4.813 13.077 3.37 8.732 7.967 8.732 7.967"></path>
    <path fill="#DAA9B5"
          d="m259.616 173.516-20.167-20.658 23.042-22.549c5.697-5.576 14.83-5.472 20.399.233 5.568 5.704 5.465 14.848-.233 20.425z"></path>
    <path fill="#FAD3C4" d="m238.262 92.669-21.518 67.77-5.906-70.42 11.423 2.294z"></path>
    <path fill="#fff" d="M237.006 97.433s-12.233 15.965-25.84.553l5.577 62.454z"></path>
    <path fill="#1D1D1B"
          d="M249.642 137.3a.47.47 0 0 1-.362-.171l-8.52-10.251a.475.475 0 0 1 .06-.664.47.47 0 0 1 .664.062l8.52 10.251a.474.474 0 0 1-.362.773M245.243 158.053a.47.47 0 0 1-.298-.106l-6.202-5.059 7.808-7.64a.47.47 0 1 1 .658.673l-7.054 6.902 5.386 4.393a.471.471 0 0 1-.298.837M209.455 134.601a.47.47 0 0 1-.428-.275l-10.679-23.271 8.164-8.568h-8.335l4.462-9.79a.474.474 0 0 1 .623-.233.473.473 0 0 1 .234.625l-3.856 8.457h9.07l-9.241 9.698 10.414 22.689a.472.472 0 0 1-.428.668"></path>
    <path fill="#1D1D1B"
          d="M235.848 137.299a.472.472 0 0 1-.428-.668l10.416-22.69-9.244-9.697h9.073l-3.856-8.458a.47.47 0 1 1 .857-.392l4.462 9.791h-8.338l8.167 8.568-.132.29-10.548 22.98a.47.47 0 0 1-.429.276"></path>
    <path fill="#FAD3C4" d="m176.807 115.452 14.592-22.492 8.904 3.353-10.499 24.02z"></path>
    <path fill="#FAD3C4"
          d="M198.301 99.236s3.013-1.244 2.189-6.455c-.824-5.21 2.64-4.77 2.653-3.938s2.665 2.411 2.889-1.07 1.164-4.756-1.402-5.109c0 0 .85-3.075-.508-3.326s-.106-3.334-2.26-3.44-4.012 1.362-4.012 1.362.926-3.958 5.621-2.864 4.821-2.017.041-3.25-8.904-.461-11.58 3.703.263 12.932-.675 16.506c-.937 3.574-.77 10.203 7.044 7.88"></path>
    <path fill="#1D1D1B"
          d="M198.409 85.726a.47.47 0 0 1-.181-.905l6.222-2.592a.47.47 0 0 1 .361.87l-6.222 2.592a.5.5 0 0 1-.18.035M197.364 82.644a.472.472 0 0 1-.182-.905l6.758-2.835a.472.472 0 0 1 .363.868l-6.757 2.835a.5.5 0 0 1-.182.037"></path>
    <path fill="#DAA9B5"
          d="m204.188 103.832-27.504-8.722-11.756 37.167c-2.405 7.604 1.802 15.721 9.397 18.13s15.702-1.804 18.107-9.408z"></path>
    <path fill="#1D1D1B"
          d="M193.978 136.562a.451.451 0 0 1-.428-.586l10.075-31.851-6.396-2.027a.45.45 0 0 1-.292-.565.45.45 0 0 1 .564-.292l7.251 2.3-10.346 32.708a.45.45 0 0 1-.428.313"></path>
    <g clip-path="url(#reason_svg__e)">
        <path fill="#CEE5F4"
              d="M177.743 2.607c-2.564-1.763-5.724-2.5-8.834-2.596-2.044-.064-4.144.146-5.986 1.035s-3.393 2.541-3.773 4.55c-8.076-3.177-18.013-2.993-24.664 2.58-1.622 1.36-3.03 3.038-3.767 5.021s-.741 4.297.29 6.145c-3.086 1.51-4.555 5.405-3.825 8.76.73 3.357 3.306 6.104 6.347 7.701 3.041 1.598 6.516 2.175 9.944 2.408 2.046.14 4.222.133 5.986-.912.378-.223.75-.498 1.186-.54.81-.076 1.436.649 1.994 1.24 2.935 3.112 7.547 3.959 11.826 3.99 5.874.041 12.256-1.436 15.902-6.04.594-.75 1.113-1.58 1.86-2.176 1.113-.89 2.583-1.153 3.913-1.663 4.532-1.738 7.485-6.872 6.706-11.661-.828-5.1-4.428-6.456-8.276-8.783-1.471-.89-1.694-1.963-2.374-3.476-1.006-2.235-2.414-4.178-4.455-5.583M191.909 39.183a1.909 1.909 0 1 1 0-3.818 1.909 1.909 0 0 1 0 3.818M195.818 42c-.652 0-1.181-.489-1.181-1.09 0-.603.529-1.091 1.181-1.091.653 0 1.182.488 1.182 1.09s-.529 1.09-1.182 1.09"></path>
        <path fill="#000"
              d="M141.922 23.265h1.221q-.059.698-.391 1.245a2.3 2.3 0 0 1-.933.854q-.6.313-1.46.313a2.9 2.9 0 0 1-1.186-.235 2.6 2.6 0 0 1-.903-.674 3.1 3.1 0 0 1-.577-1.06 4.6 4.6 0 0 1-.195-1.386v-.59q0-.768.2-1.387a3.1 3.1 0 0 1 .586-1.06q.38-.444.913-.679.537-.234 1.206-.234.85 0 1.436.312.585.313.908.865.327.552.4 1.264h-1.22a2.3 2.3 0 0 0-.215-.786 1.1 1.1 0 0 0-.479-.498q-.317-.176-.83-.176-.42 0-.732.157a1.4 1.4 0 0 0-.523.459 2.2 2.2 0 0 0-.317.747 4.5 4.5 0 0 0-.102 1.006v.6q0 .537.092.977.098.434.293.747.2.313.508.483.308.171.737.171.523 0 .845-.166.327-.166.493-.483.171-.323.225-.786m5-.899h-1.812l-.009-.893h1.582q.4 0 .678-.118a.94.94 0 0 0 .43-.346q.147-.23.147-.552 0-.357-.137-.581a.78.78 0 0 0-.42-.327 2.1 2.1 0 0 0-.713-.103h-1.187v6.133h-1.225v-7.11h2.412q.586 0 1.045.113.463.113.786.351.327.235.493.596.171.361.171.86 0 .44-.21.805-.21.361-.62.591t-1.021.273zm-.054 3.213h-2.143l.551-.972h1.592q.415 0 .694-.136a.96.96 0 0 0 .415-.386 1.16 1.16 0 0 0 .141-.581q0-.346-.122-.6a.84.84 0 0 0-.386-.396q-.263-.142-.688-.142h-1.377l.01-.893h1.792l.278.336q.586.02.962.26.381.238.566.62.186.38.186.82 0 .678-.298 1.137a1.84 1.84 0 0 1-.845.699q-.552.234-1.328.234m6.475-6.162-2.124 6.162h-1.284l2.675-7.11h.821zm1.777 6.162-2.129-6.162-.093-.947h.826l2.685 7.109zm-.102-2.637v.972h-3.868v-.972zm7.9 1.665v.972h-5.239v-.972zm-4.937 0v2.72h-1.171l-.044-2.72zm5.884 0-.073 2.715h-1.152v-2.715zm-1.806-6.137v.976h-3.282v-.976zm.937 0v7.109h-1.221v-7.11zm-4.463 0h1.226l-.171 2.88a10 10 0 0 1-.142 1.23 7 7 0 0 1-.249.982q-.142.43-.322.762-.18.327-.386.566a3 3 0 0 1-.835.689H157v-.972h.317q.132-.121.293-.351.162-.235.313-.61.156-.382.273-.943t.161-1.352zm6.934 2.73h1.787q.81 0 1.387.273.576.268.879.756.302.489.302 1.138 0 .488-.171.894-.17.405-.503.703a2.3 2.3 0 0 1-.81.454 3.4 3.4 0 0 1-1.084.161h-2.637v-7.11h1.231v6.138h1.406q.463 0 .762-.17.297-.176.439-.46.147-.282.147-.62a1.2 1.2 0 0 0-.147-.595 1.04 1.04 0 0 0-.439-.43q-.299-.162-.762-.161h-1.787zm9.936-2.73v.976h-3.305v6.133h-1.221v-7.11zm-3.676 2.73h1.787q.81 0 1.386.273.577.268.879.756.303.489.303 1.138 0 .488-.171.894-.17.405-.503.703a2.3 2.3 0 0 1-.81.454 3.4 3.4 0 0 1-1.084.161h-2.637v-7.11h1.23v6.138h1.407q.464 0 .761-.17.298-.176.44-.46.146-.282.146-.62a1.23 1.23 0 0 0-.146-.595 1.04 1.04 0 0 0-.44-.43q-.297-.162-.761-.161h-1.787zm8.227-1.783-2.124 6.162h-1.284l2.676-7.11h.82zm1.777 6.162-2.128-6.162-.093-.947h.825l2.686 7.109zm-.102-2.637v.972h-3.867v-.972z"></path>
    </g>
    <g clip-path="url(#reason_svg__f)">
        <path fill="#CEE5F4"
              d="M46.393 54.36c-2.343-1.596-5.233-2.263-8.076-2.35-1.869-.058-3.789.133-5.473.936-1.684.804-3.103 2.3-3.45 4.117-7.383-2.874-16.469-2.708-22.55 2.334-1.482 1.23-2.77 2.749-3.444 4.544s-.677 3.887.266 5.559C.844 70.866-.5 74.39.168 77.426c.668 3.037 3.023 5.522 5.803 6.968s5.958 1.967 9.092 2.178c1.87.126 3.86.12 5.473-.825.345-.202.685-.451 1.084-.488.74-.07 1.313.586 1.823 1.121 2.683 2.816 6.9 3.582 10.812 3.61 5.371.037 11.206-1.3 14.54-5.465.543-.678 1.017-1.428 1.7-1.969 1.018-.804 2.361-1.042 3.578-1.504 4.143-1.572 6.843-6.217 6.131-10.55-.757-4.615-4.048-5.841-7.567-7.947-1.345-.805-1.548-1.776-2.17-3.145-.92-2.022-2.207-3.78-4.074-5.05M59.346 87.451a1.736 1.736 0 0 1-1.746-1.726c0-.954.782-1.727 1.745-1.727s1.746.773 1.746 1.727c0 .953-.782 1.726-1.745 1.726M62.92 90c-.597 0-1.08-.442-1.08-.987s.483-.986 1.08-.986c.596 0 1.08.441 1.08.986s-.484.987-1.08.987"></path>
        <path fill="#000"
              d="M11.012 68.89V76H9.786v-7.11zm1.484 3.199v.937H10.67v-.937zm5.313.161v.39q0 .807-.21 1.446-.21.64-.601 1.089-.39.45-.933.688a3 3 0 0 1-1.2.235 3 3 0 0 1-1.192-.235 2.7 2.7 0 0 1-.938-.688 3.1 3.1 0 0 1-.61-1.09 4.5 4.5 0 0 1-.215-1.444v-.391q0-.805.215-1.44a3.2 3.2 0 0 1 .605-1.09q.39-.453.933-.688.541-.24 1.191-.239.664 0 1.207.24.541.234.932.688.39.45.6 1.089.216.635.216 1.44m-1.226.39v-.4q0-.596-.117-1.05a2.3 2.3 0 0 0-.337-.766 1.4 1.4 0 0 0-.542-.469 1.6 1.6 0 0 0-.732-.161q-.401 0-.718.161-.318.156-.542.469-.221.307-.337.766a4.2 4.2 0 0 0-.117 1.05v.4q0 .597.117 1.055.117.459.342.777.23.312.547.473.316.157.717.157.415 0 .733-.157.317-.16.537-.473a2.3 2.3 0 0 0 .332-.777q.117-.459.117-1.054m6.875-3.75v.977h-3.306V76h-1.22v-7.11zm-3.677 2.73h1.787q.81 0 1.387.274.576.268.879.756.303.489.303 1.138 0 .489-.171.894t-.503.703a2.3 2.3 0 0 1-.81.454 3.4 3.4 0 0 1-1.085.161h-2.636v-7.11h1.23v6.138h1.406q.464 0 .762-.17.298-.176.44-.46.146-.282.146-.62 0-.327-.146-.595a1.04 1.04 0 0 0-.44-.43q-.297-.162-.762-.161h-1.787zm6.67 2.383 3.154-5.112h1.226V76h-1.226v-5.117L26.452 76h-1.22v-7.11h1.22zm10.6-5.112v.976h-3.407v-.976zm.938 0V76h-1.225v-7.11zm-4.59 0h1.216l-.17 3.53q-.034.776-.133 1.367-.097.59-.263 1.01-.165.42-.42.69-.255.263-.61.39-.352.122-.826.122h-.312v-.972l.19-.014q.258-.02.445-.122a.9.9 0 0 0 .322-.313q.132-.21.22-.542.087-.332.136-.81.054-.48.078-1.119zm10.713 6.137V76h-3.774v-.972zm-3.427-6.137V76h-1.226v-7.11zm2.934 2.968v.957h-3.281v-.957zm.469-2.968v.976h-3.75v-.976zm2.236 5.112 3.154-5.112h1.226V76h-1.226v-5.117L46.325 76h-1.22v-7.11h1.22zm2.31-6.934h.874q0 .406-.196.718-.19.307-.546.483a1.86 1.86 0 0 1-.84.176q-.737 0-1.167-.38-.425-.387-.425-.997h.874q0 .274.161.484.165.204.557.205.386 0 .547-.205a.77.77 0 0 0 .16-.484"></path>
    </g>
    <defs>
        <clipPath id="reason_svg__e">
            <path fill="#fff" d="M197 0h-70v42h70z"></path>
        </clipPath>
        <clipPath id="reason_svg__f">
            <path fill="#fff" d="M64 52H0v38h64z"></path>
        </clipPath>
    </defs>
</svg>